<svg width="154" height="30" viewBox="0 0 154 30" fill="none" xmlns="http://www.w3.org/2000/svg">
<path d="M1.2219e-05 29.3799V0.579882H11.38C11.66 0.579882 11.9933 0.593215 12.38 0.619881C12.7667 0.633215 13.14 0.673215 13.5 0.739882C15.06 0.979882 16.3667 1.51321 17.42 2.33988C18.4867 3.16655 19.2867 4.21321 19.82 5.47988C20.3533 6.73321 20.62 8.12655 20.62 9.65988C20.62 11.8865 20.04 13.8199 18.88 15.4599C17.72 17.0865 16.02 18.1065 13.78 18.5199L12.42 18.7399H3.56001V29.3799H1.2219e-05ZM17.14 29.3799L11.46 17.6599L14.98 16.5799L21.22 29.3799H17.14ZM3.56001 15.3599H11.26C11.5133 15.3599 11.8 15.3465 12.12 15.3199C12.4533 15.2932 12.7667 15.2465 13.06 15.1799C13.98 14.9665 14.7267 14.5799 15.3 14.0199C15.8867 13.4465 16.3133 12.7799 16.58 12.0199C16.8467 11.2465 16.98 10.4599 16.98 9.65988C16.98 8.85988 16.8467 8.07988 16.58 7.31988C16.3133 6.54655 15.8867 5.87322 15.3 5.29988C14.7267 4.72655 13.98 4.33988 13.06 4.13988C12.7667 4.05988 12.4533 4.01322 12.12 3.99988C11.8 3.97322 11.5133 3.95988 11.26 3.95988H3.56001V15.3599ZM26.225 16.4399V13.4999H38.225V16.4399H26.225ZM56.0819 29.9799C54.1086 29.9799 52.3086 29.6332 50.6819 28.9399C49.0552 28.2465 47.6552 27.2532 46.4819 25.9599C45.3086 24.6532 44.4019 23.0799 43.7619 21.2399C43.1352 19.3865 42.8219 17.2999 42.8219 14.9799C42.8219 11.9132 43.3686 9.25988 44.4619 7.01988C45.5552 4.77988 47.0952 3.05322 49.0819 1.83988C51.0686 0.613214 53.4019 -0.000119209 56.0819 -0.000119209C59.3086 -0.000119209 61.9086 0.753214 63.8819 2.25988C65.8552 3.75321 67.2152 5.79988 67.9619 8.39988L64.3619 9.13988C63.7619 7.39322 62.7752 5.99988 61.4019 4.95988C60.0286 3.91988 58.3152 3.39988 56.2619 3.39988C54.1152 3.38655 52.3286 3.86655 50.9019 4.83988C49.4886 5.79988 48.4219 7.15321 47.7019 8.89988C46.9819 10.6465 46.6152 12.6732 46.6019 14.9799C46.5886 17.2732 46.9419 19.2865 47.6619 21.0199C48.3819 22.7532 49.4552 24.1132 50.8819 25.0999C52.3219 26.0732 54.1152 26.5665 56.2619 26.5799C58.1152 26.5932 59.6752 26.2399 60.9419 25.5199C62.2086 24.7999 63.1886 23.7599 63.8819 22.3999C64.5752 21.0399 64.9952 19.4065 65.1419 17.4999H59.0219V14.5599H68.9019C68.9419 14.8265 68.9619 15.1465 68.9619 15.5199C68.9752 15.8799 68.9819 16.1265 68.9819 16.2599C68.9819 18.8865 68.4886 21.2399 67.5019 23.3199C66.5286 25.3865 65.0819 27.0132 63.1619 28.1999C61.2552 29.3865 58.8952 29.9799 56.0819 29.9799ZM74.3766 29.3799V0.579882H77.9366V25.9999H91.2966V29.3799H74.3766ZM96.0797 29.3799V0.579882H99.6397V29.3799H96.0797ZM106.641 29.3799V0.579882H115.521C115.814 0.579882 116.327 0.586549 117.061 0.599883C117.794 0.613215 118.494 0.666548 119.161 0.759881C121.387 1.05321 123.247 1.86655 124.741 3.19988C126.247 4.51988 127.381 6.19988 128.141 8.23988C128.901 10.2799 129.281 12.5265 129.281 14.9799C129.281 17.4332 128.901 19.6799 128.141 21.7199C127.381 23.7599 126.247 25.4465 124.741 26.7799C123.247 28.0999 121.387 28.9065 119.161 29.1999C118.494 29.2799 117.787 29.3332 117.041 29.3599C116.307 29.3732 115.801 29.3799 115.521 29.3799H106.641ZM110.301 25.9799H115.521C116.027 25.9799 116.594 25.9665 117.221 25.9399C117.847 25.8999 118.394 25.8399 118.861 25.7599C120.434 25.4665 121.707 24.8065 122.681 23.7799C123.654 22.7532 124.367 21.4732 124.821 19.9399C125.274 18.4065 125.501 16.7532 125.501 14.9799C125.501 13.1665 125.267 11.4932 124.801 9.95988C124.347 8.42655 123.634 7.15321 122.661 6.13988C121.687 5.12655 120.421 4.47988 118.861 4.19988C118.394 4.10655 117.841 4.04655 117.201 4.01988C116.561 3.99321 116.001 3.97988 115.521 3.97988H110.301V25.9799ZM134.867 29.3799V0.579882H153.067V3.95988H138.427V12.9799H150.667V16.3599H138.427V25.9999H153.067V29.3799H134.867Z" fill="white"/>
</svg>
