<svg width="124" height="27" viewBox="0 0 124 27" fill="none" xmlns="http://www.w3.org/2000/svg">
<path d="M1.09971e-05 26.46V0.539998H10.476C10.728 0.539998 11.04 0.551998 11.412 0.575998C11.784 0.587998 12.138 0.623998 12.474 0.683998C13.914 0.911998 15.114 1.404 16.074 2.16C17.046 2.916 17.772 3.87 18.252 5.022C18.732 6.174 18.972 7.446 18.972 8.838C18.972 10.902 18.444 12.684 17.388 14.184C16.332 15.672 14.748 16.602 12.636 16.974L11.106 17.154H3.76201V26.46H1.09971e-05ZM15.156 26.46L10.044 15.912L13.842 14.94L19.458 26.46H15.156ZM3.76201 13.59H10.332C10.572 13.59 10.836 13.578 11.124 13.554C11.424 13.53 11.706 13.488 11.97 13.428C12.738 13.248 13.356 12.918 13.824 12.438C14.292 11.946 14.628 11.382 14.832 10.746C15.036 10.11 15.138 9.474 15.138 8.838C15.138 8.202 15.036 7.572 14.832 6.948C14.628 6.312 14.292 5.754 13.824 5.274C13.356 4.782 12.738 4.446 11.97 4.266C11.706 4.194 11.424 4.146 11.124 4.122C10.836 4.098 10.572 4.086 10.332 4.086H3.76201V13.59ZM23.0541 14.994V11.97H33.8541V14.994H23.0541ZM49.1333 27C47.3933 27 45.7913 26.7 44.3273 26.1C42.8633 25.488 41.5913 24.6 40.5113 23.436C39.4313 22.272 38.5913 20.856 37.9913 19.188C37.3913 17.52 37.0913 15.624 37.0913 13.5C37.0913 10.704 37.6013 8.304 38.6213 6.3C39.6413 4.284 41.0573 2.736 42.8693 1.656C44.6813 0.563998 46.7693 0.0179973 49.1333 0.0179973C52.1813 0.0179973 54.6113 0.725997 56.4233 2.142C58.2473 3.558 59.4893 5.514 60.1493 8.01L56.3333 8.694C55.8053 7.146 54.9533 5.91 53.7773 4.986C52.6013 4.062 51.1253 3.594 49.3493 3.582C47.5133 3.57 45.9833 3.978 44.7593 4.806C43.5473 5.634 42.6353 6.798 42.0233 8.298C41.4113 9.786 41.0993 11.52 41.0873 13.5C41.0753 15.48 41.3753 17.214 41.9873 18.702C42.5993 20.178 43.5173 21.33 44.7413 22.158C45.9773 22.986 47.5133 23.406 49.3493 23.418C50.8253 23.442 52.0913 23.172 53.1473 22.608C54.2153 22.032 55.0613 21.192 55.6853 20.088C56.3093 18.984 56.7113 17.628 56.8913 16.02H51.8513V12.996H60.8873C60.9113 13.212 60.9293 13.5 60.9413 13.86C60.9533 14.208 60.9593 14.43 60.9593 14.526C60.9593 16.926 60.4973 19.068 59.5733 20.952C58.6493 22.836 57.3053 24.318 55.5413 25.398C53.7773 26.466 51.6413 27 49.1333 27ZM64.9069 26.46V-1.43051e-06H68.6689V26.46H64.9069ZM74.4342 3.834V0.179998H78.1962V3.834H74.4342ZM74.4342 26.46V7.02H78.1962V26.46H74.4342ZM91.3236 27C89.5116 27 87.9456 26.55 86.6256 25.65C85.3176 24.75 84.3036 23.526 83.5836 21.978C82.8756 20.418 82.5216 18.666 82.5216 16.722C82.5216 14.766 82.8816 13.02 83.6016 11.484C84.3216 9.936 85.3416 8.718 86.6616 7.83C87.9936 6.93 89.5716 6.48 91.3956 6.48C93.2316 6.48 94.7736 6.93 96.0216 7.83C97.2816 8.718 98.2296 9.936 98.8656 11.484C99.5136 13.032 99.8376 14.778 99.8376 16.722C99.8376 18.666 99.5136 20.412 98.8656 21.96C98.2176 23.508 97.2636 24.738 96.0036 25.65C94.7436 26.55 93.1836 27 91.3236 27ZM91.8456 23.598C93.0816 23.598 94.0896 23.304 94.8696 22.716C95.6496 22.128 96.2196 21.318 96.5796 20.286C96.9396 19.254 97.1196 18.066 97.1196 16.722C97.1196 15.378 96.9336 14.19 96.5616 13.158C96.2016 12.126 95.6376 11.322 94.8696 10.746C94.1136 10.17 93.1476 9.882 91.9716 9.882C90.7236 9.882 89.6976 10.188 88.8936 10.8C88.0896 11.412 87.4896 12.234 87.0936 13.266C86.7096 14.298 86.5176 15.45 86.5176 16.722C86.5176 18.006 86.7096 19.17 87.0936 20.214C87.4896 21.246 88.0776 22.068 88.8576 22.68C89.6496 23.292 90.6456 23.598 91.8456 23.598ZM97.1196 26.46V12.474H96.6876V0.539998H100.468V26.46H97.1196ZM114.126 27C112.194 27 110.496 26.58 109.032 25.74C107.58 24.888 106.446 23.706 105.63 22.194C104.826 20.67 104.424 18.906 104.424 16.902C104.424 14.778 104.82 12.936 105.612 11.376C106.416 9.816 107.532 8.61 108.96 7.758C110.388 6.906 112.05 6.48 113.946 6.48C115.926 6.48 117.612 6.942 119.004 7.866C120.396 8.778 121.434 10.08 122.118 11.772C122.814 13.464 123.09 15.474 122.946 17.802H119.184V16.434C119.16 14.178 118.728 12.51 117.888 11.43C117.06 10.35 115.794 9.81 114.09 9.81C112.206 9.81 110.79 10.404 109.842 11.592C108.894 12.78 108.42 14.496 108.42 16.74C108.42 18.876 108.894 20.532 109.842 21.708C110.79 22.872 112.158 23.454 113.946 23.454C115.122 23.454 116.136 23.19 116.988 22.662C117.852 22.122 118.524 21.354 119.004 20.358L122.694 21.528C121.938 23.268 120.792 24.618 119.256 25.578C117.72 26.526 116.01 27 114.126 27ZM107.196 17.802V14.868H121.074V17.802H107.196Z" fill="#032E5D"/>
</svg>
