<svg width="23" height="18" viewBox="0 0 23 18" fill="none" xmlns="http://www.w3.org/2000/svg">
<path d="M5.66667 5.57143L10.0417 9C10.4555 9.32458 10.9699 9.50143 11.5 9.50143C12.0301 9.50143 12.5445 9.32458 12.9583 9L17.3333 5.57143M22 14.7143V3.28571C22 2.67951 21.7542 2.09812 21.3166 1.66947C20.879 1.24082 20.2855 1 19.6667 1H3.33333C2.71449 1 2.121 1.24082 1.68342 1.66947C1.24583 2.09812 1 2.67951 1 3.28571V14.7143C1 15.3205 1.24583 15.9019 1.68342 16.3305C2.121 16.7592 2.71449 17 3.33333 17H19.6667C20.2855 17 20.879 16.7592 21.3166 16.3305C21.7542 15.9019 22 15.3205 22 14.7143Z" stroke="#009FFF" stroke-width="2" stroke-linecap="round" stroke-linejoin="round"/>
</svg>
