<svg width="38" height="38" viewBox="0 0 38 38" fill="none" xmlns="http://www.w3.org/2000/svg">
<path d="M0 19C0 8.50659 8.50659 0 19 0C29.4934 0 38 8.50659 38 19C38 29.4934 29.4934 38 19 38C8.50659 38 0 29.4934 0 19Z" fill="url(#paint0_linear_419_1515)"/>
<path d="M17.814 20.104C17.814 20.6797 18.2823 21.148 18.8579 21.148C19.4336 21.148 19.9019 20.6797 19.9019 20.104C19.9019 19.666 19.373 16.8908 18.8579 14.325C18.3428 16.8908 17.814 19.666 17.814 20.104Z" fill="#032E5D"/>
<path d="M13.1522 13.155L15.5231 15.5259C16.3086 14.8774 17.2854 14.4531 18.3548 14.3508V11C16.4172 11.1112 14.601 11.8635 13.1522 13.155Z" fill="#032E5D"/>
<path d="M25.2753 13.8666L22.9044 16.2375C23.5528 17.023 23.9772 17.9998 24.0794 19.0692H27.4302C27.319 17.1316 26.5667 15.3153 25.2753 13.8666Z" fill="#032E5D"/>
<path d="M19.3612 11V14.3508C20.4306 14.4531 21.4074 14.8774 22.1929 15.5259L24.5638 13.155C23.115 11.8635 21.2988 11.1112 19.3612 11Z" fill="#032E5D"/>
<path d="M22.5674 23.2817L22.2116 23.6374L24.5744 26.0002L24.9302 25.6445C26.433 24.1417 27.3096 22.18 27.4304 20.0755H24.08C23.9655 21.2867 23.4386 22.4104 22.5674 23.2817Z" fill="#032E5D"/>
<path d="M10.2858 19.0692H13.6366C13.7388 17.9998 14.1632 17.023 14.8117 16.2375L12.4407 13.8666C11.1493 15.3153 10.397 17.1316 10.2858 19.0692Z" fill="#032E5D"/>
<path d="M12.7859 25.6445L13.1417 26.0002L15.5045 23.6374L15.1487 23.2817C14.2775 22.4104 13.7507 21.2867 13.6361 20.0755H10.2858C10.4066 22.18 11.2832 24.1417 12.7859 25.6445Z" fill="#032E5D"/>
<defs>
<linearGradient id="paint0_linear_419_1515" x1="38" y1="19" x2="0" y2="19" gradientUnits="userSpaceOnUse">
<stop stop-color="#D7EBF2"/>
<stop offset="0.259615" stop-color="#EBEEEC"/>
<stop offset="0.5" stop-color="#F4ECE2"/>
<stop offset="1" stop-color="#F1E7DC"/>
</linearGradient>
</defs>
</svg>
