<svg width="38" height="38" viewBox="0 0 38 38" fill="none" xmlns="http://www.w3.org/2000/svg">
<path d="M0 19C0 8.50659 8.50659 0 19 0C29.4934 0 38 8.50659 38 19C38 29.4934 29.4934 38 19 38C8.50659 38 0 29.4934 0 19Z" fill="url(#paint0_linear_419_1531)"/>
<path d="M20.2552 27H17.7448C17.5213 27 17.3289 26.8423 17.2851 26.6232L17.0506 25.4506C16.6228 25.3216 16.2097 25.1506 15.8169 24.9398L14.8221 25.603C14.6362 25.727 14.3887 25.7024 14.2307 25.5444L12.4555 23.7693C12.2975 23.6113 12.273 23.3637 12.397 23.1778L13.0602 22.183C12.8494 21.7903 12.6784 21.3772 12.5493 20.9493L11.3768 20.7148C11.1577 20.6711 11 20.4787 11 20.2552V17.7448C11 17.5213 11.1577 17.3289 11.3768 17.2851L12.5494 17.0507C12.6784 16.6228 12.8495 16.2097 13.0602 15.8169L12.397 14.8222C12.273 14.6363 12.2976 14.3887 12.4556 14.2307L14.2307 12.4556C14.3887 12.2975 14.6363 12.2731 14.8222 12.397L15.817 13.0602C16.2098 12.8494 16.6228 12.6784 17.0507 12.5494L17.2851 11.3768C17.3289 11.1577 17.5213 11 17.7448 11H20.2552C20.4786 11 20.671 11.1577 20.7149 11.3768L20.9493 12.5494C21.3771 12.6784 21.7902 12.8494 22.183 13.0602L23.1778 12.397C23.3638 12.273 23.6113 12.2976 23.7693 12.4556L25.5444 14.2307C25.7024 14.3887 25.727 14.6363 25.603 14.8222L24.9398 15.817C25.1505 16.2097 25.3216 16.6228 25.4506 17.0507L26.6232 17.2852C26.8423 17.329 27 17.5214 27 17.7448V20.2552C27 20.4787 26.8423 20.6711 26.6232 20.7149L25.4506 20.9494C25.3216 21.3772 25.1505 21.7903 24.9398 22.1831L25.603 23.1779C25.727 23.3638 25.7024 23.6113 25.5444 23.7693L23.7693 25.5445C23.6113 25.7025 23.3638 25.727 23.1778 25.603L22.183 24.9398C21.7903 25.1506 21.3772 25.3217 20.9493 25.4507L20.7149 26.6232C20.671 26.8423 20.4786 27 20.2552 27ZM19 15.0938C16.8461 15.0938 15.0937 16.8461 15.0937 19C15.0937 21.1539 16.8461 22.9062 19 22.9062C21.1539 22.9062 22.9062 21.1539 22.9062 19C22.9062 16.8461 21.1539 15.0938 19 15.0938Z" fill="#032E5D"/>
<defs>
<linearGradient id="paint0_linear_419_1531" x1="38" y1="19" x2="0" y2="19" gradientUnits="userSpaceOnUse">
<stop stop-color="#D7EBF2"/>
<stop offset="0.259615" stop-color="#EBEEEC"/>
<stop offset="0.5" stop-color="#F4ECE2"/>
<stop offset="1" stop-color="#F1E7DC"/>
</linearGradient>
</defs>
</svg>
