<svg width="38" height="38" viewBox="0 0 38 38" fill="none" xmlns="http://www.w3.org/2000/svg">
<path d="M0 19C0 8.50659 8.50659 0 19 0C29.4934 0 38 8.50659 38 19C38 29.4934 29.4934 38 19 38C8.50659 38 0 29.4934 0 19Z" fill="url(#paint0_linear_419_1526)"/>
<path fill-rule="evenodd" clip-rule="evenodd" d="M19.688 21.2841V16.6496C19.6888 16.5729 19.6757 16.4968 19.6495 16.4257C19.6233 16.3545 19.5845 16.2897 19.5353 16.2349C19.4861 16.1801 19.4274 16.1364 19.3628 16.1063C19.2981 16.0762 19.2286 16.0603 19.1582 16.0594C19.0879 16.0586 19.0181 16.0729 18.9528 16.1015C18.8875 16.13 18.8281 16.1724 18.7778 16.226C18.7275 16.2796 18.6874 16.3435 18.6598 16.414C18.6322 16.4845 18.6176 16.5603 18.6168 16.637V21.2841C17.8127 21.5349 17.2225 22.335 17.2225 23.2811C17.2225 24.4276 18.0882 25.3603 19.1523 25.3603C20.2163 25.3603 21.082 24.4276 21.082 23.2811C21.082 22.3349 20.4922 21.5349 19.6879 21.2841L19.688 21.2841ZM26 18.6048C26 18.7597 25.9436 18.9082 25.8431 19.0176C25.7427 19.1271 25.6064 19.1886 25.4644 19.1886H23.166C23.0239 19.1886 22.8877 19.1271 22.7872 19.0176C22.6868 18.9082 22.6304 18.7597 22.6304 18.6048C22.6304 18.45 22.6868 18.3015 22.7872 18.192C22.8877 18.0825 23.0239 18.021 23.166 18.021H25.4644C25.6065 18.021 25.7427 18.0825 25.8432 18.192C25.9436 18.3015 26.0001 18.45 26.0001 18.6048H26ZM26 15.733C26 15.8879 25.9436 16.0364 25.8431 16.1459C25.7427 16.2554 25.6064 16.3169 25.4644 16.3169H23.166C23.0239 16.3169 22.8877 16.2554 22.7872 16.1459C22.6868 16.0364 22.6304 15.8879 22.6304 15.733C22.6304 15.5782 22.6868 15.4297 22.7872 15.3202C22.8877 15.2107 23.0239 15.1492 23.166 15.1492H25.4644C25.6065 15.1492 25.7427 15.2107 25.8432 15.3202C25.9436 15.4297 26.0001 15.5782 26.0001 15.733H26ZM22.6303 12.8297C22.6303 12.6749 22.6867 12.5264 22.7872 12.4169C22.8876 12.3074 23.0239 12.2459 23.1659 12.2459H25.4644C25.6064 12.2459 25.7427 12.3074 25.8431 12.4169C25.9436 12.5264 26 12.6749 26 12.8297C26 12.9845 25.9436 13.133 25.8431 13.2425C25.7427 13.352 25.6064 13.4135 25.4644 13.4135H23.166C23.0239 13.4135 22.8877 13.352 22.7872 13.2425C22.6868 13.133 22.6304 12.9845 22.6304 12.8297H22.6303ZM19.1418 24.2062C18.974 24.2062 18.8099 24.152 18.6703 24.0503C18.5307 23.9487 18.422 23.8042 18.3577 23.6352C18.2935 23.4662 18.2767 23.2802 18.3094 23.1008C18.3421 22.9213 18.423 22.7565 18.5416 22.6271C18.6603 22.4977 18.8115 22.4096 18.9762 22.3739C19.1408 22.3382 19.3114 22.3565 19.4665 22.4266C19.6216 22.4966 19.7541 22.6151 19.8474 22.7673C19.9406 22.9194 19.9904 23.0982 19.9904 23.2812C19.9901 23.5264 19.9006 23.7615 19.7415 23.9349C19.5824 24.1083 19.3667 24.2059 19.1417 24.2062H19.1418ZM19.138 27.2105C18.4007 27.2105 17.6816 26.9609 17.0801 26.4963C16.4786 26.0316 16.0243 25.3748 15.78 24.6165C15.5357 23.8583 15.5135 23.0361 15.7164 22.2635C15.9193 21.4909 16.3374 20.806 16.9128 20.3036C16.9748 20.2493 17.0248 20.1806 17.0591 20.1024C17.0935 20.0243 17.1113 19.9387 17.1113 19.852V13.2091C17.1113 12.919 17.1637 12.6317 17.2656 12.3637C17.3674 12.0957 17.5167 11.8521 17.7049 11.647C17.8931 11.4419 18.1165 11.2792 18.3624 11.1682C18.6083 11.0571 18.8718 11 19.138 11C19.4041 11 19.6676 11.0571 19.9135 11.1682C20.1594 11.2792 20.3828 11.4419 20.571 11.647C20.7592 11.8521 20.9085 12.0957 21.0103 12.3637C21.1122 12.6317 21.1646 12.919 21.1646 13.2091V19.852C21.1646 19.9387 21.1824 20.0243 21.2168 20.1025C21.2512 20.1806 21.3013 20.2494 21.3634 20.3036C21.9388 20.8061 22.3569 21.4909 22.5598 22.2635C22.7627 23.0362 22.7405 23.8584 22.4962 24.6167C22.2518 25.3749 21.7975 26.0318 21.1959 26.4964C20.5943 26.9611 19.8752 27.2106 19.1379 27.2106L19.138 27.2105Z" fill="#032E5D"/>
<defs>
<linearGradient id="paint0_linear_419_1526" x1="38" y1="19" x2="0" y2="19" gradientUnits="userSpaceOnUse">
<stop stop-color="#D7EBF2"/>
<stop offset="0.259615" stop-color="#EBEEEC"/>
<stop offset="0.5" stop-color="#F4ECE2"/>
<stop offset="1" stop-color="#F1E7DC"/>
</linearGradient>
</defs>
</svg>
